#!OML:ASF E:/inclinewalkrobotboard/Project1/Captureday1/Session1/subject1.ASF
:FULLY-SPECIFIED
:DEGREES
251
root 0 0 0 -1.6740693946407754 -4.858940370277372 -6.590720720267221
lowerback 10.084302108641305 2.2108168155762065 4.789767935508747
upperback 0.02497348420524531 3.5764712889360872 1.372900975645361
thorax -5.55415876912264 1.6497691097781015 -1.7706697662360094
lowerneck -14.450695182566585 -3.2626274292122126 -0.9306548318857869
upperneck 16.948038057979666 -4.494493082312648 1.4207300445080724
head 7.857391762838402 -2.089888650683332 0.13982726725528702
rclavicle -1.8063188907969497E-16 -8.020389105365358E-17
rhumerus -19.721101184763377 -7.347925754626753 -67.47187800270426
rradius 60.37256987371696
rwrist -8.039029833965802
rhand -13.379126765674734 -8.754567247831499
rfingers 7.125019999999865
rthumb 12.754675546600236 -37.99588004633014
lclavicle -8.574840725164668E-16 -4.113441980275653E-16
lhumerus -40.134956238298166 0.30695261918318456 83.33359922483336
lradius 38.90037050467835
lwrist 2.47019215983625
lhand -18.911502075567345 -0.7347934055115957
lfingers 7.125019999999868
lthumb 7.281320205736853 28.757512504314256
rfemur -7.21418215658924 2.318774950452649 14.569519981963015
rtibia 25.97612953506967
rfoot -2.1908519536372255 -2.9753205250563814
rtoes 3.1103663390296035
lfemur -3.505329434962784 -3.79884643066734 -17.81652423565407
ltibia 22.629821755240776
lfoot -17.105498638129717 4.664201261652597
ltoes -25.083777848667907
252
root 0 0 0 -1.6746532175173714 -4.616037167241274 -6.2107254987181815
lowerback 10.080064569297939 2.066977735089199 4.373246615765318
upperback 0.025785146210696774 3.333771195337596 1.3529068136404505
thorax -5.553299281654513 1.540242726055429 -1.525600204644804
lowerneck -14.398165799437194 -3.225207216563123 -0.9469015955723693
upperneck 16.87255170467868 -4.43667915777703 1.4237659667293847
head 7.830625402216514 -2.064399097199808 0.15181554408893946
rclavicle -1.8069196782555488E-16 -8.210390954865521E-17
rhumerus -19.735396053285037 -7.36659619650281 -67.48636418241193
rradius 60.32242320017457
rwrist -8.020191203880628
rhand -13.385699759207084 -8.705364397945988
rfingers 7.125019999999865
rthumb 12.747954357910958 -37.94775330065715
lclavicle -8.511327769803089E-16 -4.074760956451143E-16
lhumerus -40.02172014338613 0.2992620496739917 83.32224431630215
lradius 38.751049879932296
lwrist 2.5191539453067215
lhand -19.028523444664327 -0.37710751085309724
lfingers 7.1250199999998705
lthumb 7.170065759989905 29.120506609125663
rfemur -7.829836632677306 2.2256935076061195 14.461457704026508
rtibia 26.632693401602566
rfoot -1.9251230402877966 -3.073917570156509
rtoes 3.21524021274784
lfemur -1.828871347611921 -4.01869496641022 -18.658215727934177
ltibia 20.935720220092556
lfoot -17.881414996867033 4.847564492740943
ltoes -24.93709484971788
253
root 0 0 0 -1.677512978201725 -4.190740273802712 -5.553203502662612
lowerback 10.069865214432951 1.812501251701669 3.647934144901749
upperback 0.02972606112063131 2.9064496028260525 1.319948526783099
thorax -5.548765655764059 1.3471196946384563 -1.0948579443670579
lowerneck -14.306958554893662 -3.15659742707001 -0.973571380980335
upperneck 16.754723403075968 -4.3297147269510585 1.4232691100710224
head 7.782689938822584 -2.017904276740499 0.1708841006517835
rclavicle -1.7999812326980756E-16 -8.426111136005732E-17
rhumerus -19.729747078802923 -7.366505830729853 -67.47996101345126
rradius 60.33442586545987
rwrist -8.023698284380252
rhand -13.384649860158765 -8.710371193701858
rfingers 7.125019999999865
rthumb 12.74847842006918 -37.952940601591536
lclavicle -8.395333218098391E-16 -4.0138643567596273E-16
lhumerus -39.88786593460324 0.28516520983980104 83.30899614060897
lradius 38.58660587902106
lwrist 2.578428962426899
lhand -19.163844532835775 0.034583642169611295
lfingers 7.125019999999873
lthumb 7.041770327307533 29.53684651563679
rfemur -8.371580295845213 2.169763358890952 14.383611665901256
rtibia 27.024047687985185
rfoot -1.804593571714634 -3.190321326285095
rtoes 3.2251006351915295
lfemur -0.5462047455362447 -4.16279449372323 -19.345910647608278
ltibia 19.7707821181697
lfoot -18.356900218867118 4.884964291698408
ltoes -24.59506600146298
254
root 0 0 0 -1.7003253602382888 -3.3786334411921146 -4.300340346522938
lowerback 10.05054669424801 1.3147800911691032 2.2677458766429046
upperback 0.04758002474026912 2.078027851762243 1.2664924642027282
thorax -5.530381307119322 0.9714419313925584 -0.2596442117267549
lowerneck -14.167844283075066 -3.019371492307864 -1.0311808358753927
upperneck 16.6105031846229 -4.110180841850626 1.398207168659872
head 7.709027533926113 -1.924898151952941 0.20068270871157834
rclavicle -1.824734340071972E-16 -8.791682600175781E-17
rhumerus -19.746461984324768 -7.3952748582152035 -67.49929320354892
rradius 60.26293241239293
rwrist -7.997356231452035
rhand -13.395708937833081 -8.63223635385454
rfingers 7.125019999999865
rthumb 12.737063174330892 -37.87669168833279
lclavicle -8.217647292773162E-16 -3.9180818137770034E-16
lhumerus -39.72027837755573 0.2642771029895247 83.29297356203244
lradius 38.38770083128638
lwrist 2.653365893648703
lhand -19.33130709044789 0.5425463436716047
lfingers 7.125019999999877
lthumb 6.88340166459569 30.049626347469136
rfemur -8.869223524421464 2.099106208686673 14.26838310646666
rtibia 27.430210742294747
rfoot -1.6277961050495662 -3.2784368536051245
rtoes 3.2622400489270365
lfemur 0.30666645566010775 -4.225557669501378 -19.877272607507358
ltibia 19.163728241086524
lfoot -18.506410566444064 4.761922938596383
ltoes -24.00007782490784
